<?xml version="1.0" encoding="UTF-8" standalone="no"?>
<!-- Created with Inkscape (http://www.inkscape.org/) -->

<svg
   width="310"
   height="295"
   viewBox="0 0 82.020838 78.052095"
   version="1.1"
   id="svg5"
   inkscape:version="1.2.1 (1:1.2.1+202210291244+9c6d41e410)"
   sodipodi:docname="qr.svg"
   xmlns:inkscape="http://www.inkscape.org/namespaces/inkscape"
   xmlns:sodipodi="http://sodipodi.sourceforge.net/DTD/sodipodi-0.dtd"
   xmlns="http://www.w3.org/2000/svg"
   xmlns:svg="http://www.w3.org/2000/svg">
  <sodipodi:namedview
     id="namedview7"
     pagecolor="#ffffff"
     bordercolor="#000000"
     borderopacity="0.25"
     inkscape:showpageshadow="2"
     inkscape:pageopacity="0.0"
     inkscape:pagecheckerboard="0"
     inkscape:deskcolor="#d1d1d1"
     inkscape:document-units="mm"
     showgrid="false"
     inkscape:zoom="0.70710678"
     inkscape:cx="-142.83557"
     inkscape:cy="277.18586"
     inkscape:window-width="1920"
     inkscape:window-height="949"
     inkscape:window-x="1920"
     inkscape:window-y="27"
     inkscape:window-maximized="1"
     inkscape:current-layer="layer1"
     showguides="true">
    <sodipodi:guide
       position="2.0796956,47.911001"
       orientation="1,0"
       id="guide10146"
       inkscape:locked="false" />
    <sodipodi:guide
       position="51.644186,75.877081"
       orientation="0,-1"
       id="guide10148"
       inkscape:locked="false" />
    <sodipodi:guide
       position="79.974555,7.3170564"
       orientation="1,0"
       id="guide10150"
       inkscape:locked="false" />
    <sodipodi:guide
       position="49.622527,2.1750135"
       orientation="0,-1"
       id="guide10152"
       inkscape:locked="false" />
  </sodipodi:namedview>
  <defs
     id="defs2" />
  <g
     inkscape:label="Capa 1"
     inkscape:groupmode="layer"
     id="layer1">
    <g
       id="g11264-9-6"
       transform="matrix(1.0582102,0,0,1.0582102,-28.743786,22.00294)">
      <path
         id="rect10208-1-2"
         style="fill:#120a0a;fill-opacity:1;stroke-width:0.089"
         d="m 29.127938,27.141488 c -9.73e-4,0 -0.0021,0.0014 -0.0021,0.0026 v 23.763924 c 0,0.0012 0.0011,0.0026 0.0021,0.0026 h 23.764957 c 9.73e-4,0 0.0021,-0.0014 0.0021,-0.0026 v -23.76394 c 0,-0.0012 -0.0011,-0.0026 -0.0021,-0.0026 z m 3.431315,3.432348 h 16.902326 c 6.93e-4,0 10e-4,6.8e-4 10e-4,0.0016 V 47.47673 c 0,8.7e-4 -3.41e-4,0.0015 -10e-4,0.0015 H 32.559253 c -6.92e-4,0 -10e-4,-6.8e-4 -10e-4,-0.0015 V 30.575387 c 0,-8.71e-4 3.42e-4,-0.0016 10e-4,-0.0016 z" />
      <rect
         style="fill:#120a0a;fill-opacity:1;stroke-width:0.123047"
         id="rect11176-2-6"
         width="9.9295778"
         height="9.9295778"
         x="36.045628"
         y="34.061253"
         rx="0.0017274546"
         ry="0.0021717029" />
    </g>
    <g
       id="g11264-9-6-2"
       transform="matrix(1.058346,0,0,1.058346,23.99334,-26.55281)">
      <path
         id="rect10208-1-2-0"
         style="fill:#120a0a;fill-opacity:1;stroke-width:0.089"
         d="m 29.127938,27.141488 c -9.73e-4,0 -0.0021,0.0014 -0.0021,0.0026 v 23.763924 c 0,0.0012 0.0011,0.0026 0.0021,0.0026 h 23.764957 c 9.73e-4,0 0.0021,-0.0014 0.0021,-0.0026 v -23.76394 c 0,-0.0012 -0.0011,-0.0026 -0.0021,-0.0026 z m 3.431315,3.432348 h 16.902326 c 6.93e-4,0 10e-4,6.8e-4 10e-4,0.0016 V 47.47673 c 0,8.7e-4 -3.41e-4,0.0015 -10e-4,0.0015 H 32.559253 c -6.92e-4,0 -10e-4,-6.8e-4 -10e-4,-0.0015 V 30.575387 c 0,-8.71e-4 3.42e-4,-0.0016 10e-4,-0.0016 z" />
      <rect
         style="fill:#120a0a;fill-opacity:1;stroke-width:0.123047"
         id="rect11176-2-6-6"
         width="9.9295778"
         height="9.9295778"
         x="36.045628"
         y="34.061253"
         rx="0.0017274546"
         ry="0.0021717029" />
    </g>
    <g
       id="g16152">
      <path
         id="rect10208-1-2-2"
         style="fill:#120a0a;fill-opacity:1;stroke-width:0.0941928"
         d="m 2.0796957,2.1750103 c -0.00103,0 -0.00222,0.00148 -0.00222,0.00275 V 27.328214 c 0,0.0013 0.00116,0.0028 0.00222,0.0028 H 27.231243 c 0.001,0 0.0022,-0.0015 0.0022,-0.0028 V 2.177745 c 0,-0.00127 -0.0012,-0.00275 -0.0022,-0.00275 z M 5.7112142,5.807622 H 23.599723 c 7.34e-4,0 0.0011,7.197e-4 0.0011,0.00169 v 17.88742 c 0,9.21e-4 -3.61e-4,0.0016 -0.0011,0.0016 H 5.7112142 c -7.324e-4,0 -0.00106,-7.2e-4 -0.00106,-0.0016 V 5.8092635 c 0,-9.218e-4 3.62e-4,-0.00169 0.00106,-0.00169 z" />
      <rect
         style="fill:#120a0a;fill-opacity:1;stroke-width:0.130226"
         id="rect11176-2-6-0"
         width="10.508929"
         height="10.508929"
         x="9.4010048"
         y="9.4985151"
         rx="0.0018282447"
         ry="0.0022984131" />
    </g>
    <rect
       style="fill:#120a0a;fill-opacity:1;stroke-width:0.111024"
       id="rect11176-2-6-0-2-9-3-1-9-4"
       width="8.9593563"
       height="8.9593563"
       x="41.082047"
       y="2.1722584"
       rx="0.0015586645"
       ry="0.001959505" />
    <rect
       style="fill:#120a0a;fill-opacity:1;stroke-width:0.157012"
       id="rect11176-2-6-0-2-9-3-1-9-4-8"
       width="8.9593563"
       height="17.918715"
       x="59.000763"
       y="30.370607"
       rx="0.0015586645"
       ry="0.0039190105" />
    <rect
       style="fill:#120a0a;fill-opacity:1;stroke-width:0.16009"
       id="rect11176-2-6-0-2-9-3-1-9-4-5"
       width="8.9593563"
       height="18.628387"
       x="50.041405"
       y="48.289322"
       rx="0.0015586645"
       ry="0.0040742233" />
    <rect
       style="fill:#120a0a;fill-opacity:1;stroke-width:0.16987"
       id="rect11176-2-6-0-2-9-3-1-9-4-5-44-7"
       width="20.973782"
       height="8.9593563"
       x="59.000763"
       y="39.329964"
       rx="0.003648821"
       ry="0.001959505" />
    <rect
       style="fill:#120a0a;fill-opacity:1;stroke-width:0.165642"
       id="rect11176-2-6-0-2-9-3-1-9-4-5-44-3-0"
       width="8.9593563"
       height="19.942797"
       x="32.122688"
       y="55.934269"
       rx="0.0015586645"
       ry="0.0043616984" />
    <rect
       style="fill:#120a0a;fill-opacity:1;stroke-width:0.157011"
       id="rect11176-2-6-0-2-9-3-1-9-4-5-4-7"
       width="17.918715"
       height="8.9593639"
       x="32.122688"
       y="66.917709"
       rx="0.0031173292"
       ry="0.0019595067" />
    <rect
       style="fill:#120a0a;fill-opacity:1;stroke-width:0.167883"
       id="rect11176-2-6-0-2-9-3-1-9-4-3-7"
       width="8.9593563"
       height="20.486006"
       x="41.082047"
       y="27.803316"
       rx="0.0015586645"
       ry="0.004480504" />
    <rect
       style="opacity:1;fill:#000000;fill-opacity:1;stroke-width:0.089"
       id="rect23641"
       width="8.9593563"
       height="16.671701"
       x="32.122688"
       y="11.131615"
       rx="0.0015586645"
       ry="0.001959505" />
    <rect
       style="fill:#120a0a;fill-opacity:1;stroke-width:0.175279"
       id="rect11176-2-6-0-2-9-3-1-9-4-4"
       width="8.9593563"
       height="22.330654"
       x="39.329964"
       y="-50.041405"
       rx="0.0015586645"
       ry="0.0048839478"
       transform="rotate(90)" />
    <rect
       style="fill:#120a0a;fill-opacity:1;stroke-width:0.111024"
       id="rect11176-2-6-0-2-9-3-1-9-4-3-5"
       width="8.9593563"
       height="8.9593563"
       x="39.329964"
       y="-11.039054"
       rx="0.0015586645"
       ry="0.001959505"
       transform="rotate(90)" />
    <rect
       style="fill:#000000;fill-opacity:1;stroke-width:0.089"
       id="rect23641-2"
       width="8.9593563"
       height="16.671701"
       x="30.370607"
       y="-27.710752"
       rx="0.0015586645"
       ry="0.001959505"
       transform="rotate(90)" />
    <rect
       style="fill:#120a0a;fill-opacity:1;stroke-width:0.111024"
       id="rect11176-2-6-0-2-9-3-1-9-4-3-5-8"
       width="8.9593563"
       height="8.9593563"
       x="66.917709"
       y="-67.960121"
       rx="0.0015586645"
       ry="0.001959505"
       transform="rotate(90)" />
    <rect
       style="fill:#120a0a;fill-opacity:1;stroke-width:0.128567"
       id="rect11176-2-6-0-2-9-3-1-9-4-3-5-8-4"
       width="8.9593563"
       height="12.014425"
       x="57.979988"
       y="-79.974548"
       rx="0.0015586645"
       ry="0.0026276808"
       transform="rotate(90)" />
  </g>
</svg>
